<?xml version="1.0" encoding="utf-8"?>
<!-- Generator: Adobe Illustrator 16.0.0, SVG Export Plug-In . SVG Version: 6.00 Build 0)  -->
<!DOCTYPE svg PUBLIC "-//W3C//DTD SVG 1.1//EN" "http://www.w3.org/Graphics/SVG/1.1/DTD/svg11.dtd">
<svg version="1.1" id="Layer_1" xmlns="http://www.w3.org/2000/svg" xmlns:xlink="http://www.w3.org/1999/xlink" x="0px" y="0px"
	 width="315.584px" height="108.658px" viewBox="0 0 315.584 108.658" enable-background="new 0 0 315.584 108.658"
	 xml:space="preserve">
<g>
	<g>
		<path fill="#D4E9FF" stroke="#E6720B" stroke-width="3.0867" d="M187.589,81.106c-4.604-3.964-7.964-18.81-0.678-24.726
			c4.259-3.455,20.879-8.311,46.378-8.126c43.837,0.317,48.154,2.8,52.7,5.673c10.793,6.808,9.791,22.544,2.634,27.179
			c-6.34,4.104-34.598,5.179-53.216,4.737C211.902,85.276,195.347,87.781,187.589,81.106z"/>
		<path fill="none" stroke="#E6720B" stroke-width="2.7171" stroke-linecap="round" d="M198.136,50.892
			c-5.932-1.312-0.096-6.292-7.401-10.742"/>
		<path fill="none" stroke="#E6720B" stroke-width="2.7171" stroke-linecap="round" d="M250.843,48.247
			c-2.554-5.511,2.339-4.936,1.447-13.438"/>
		<path fill="none" stroke="#E6720B" stroke-width="2.7171" stroke-linecap="round" d="M217.082,48.247
			c-2.55-5.511,8.082-5.253,7.19-13.755"/>
		<path fill="none" stroke="#E6720B" stroke-width="2.7171" stroke-linecap="round" d="M267.291,48.563
			c-3.058-5.246,0.759-5.688-0.925-14.072"/>
		<path fill="none" stroke="#E6720B" stroke-width="2.7171" stroke-linecap="round" d="M280.014,50.892
			c-2.534-5.518,5.945-3.264,5.072-11.766"/>
		<path fill="none" stroke="#E6720B" stroke-width="2.7171" stroke-linecap="round" d="M192.813,95.038
			c4.921-5.776,15.704-0.752,17.531-9.106"/>
		<path fill="none" stroke="#E6720B" stroke-width="1.3586" stroke-linecap="round" d="M62.328,72.7
			c18.231,1.547,60.745-1.326,73.756,3.492c42.587,15.766,52.228-5.658,47.8-0.708"/>
		<path fill="none" stroke="#E6720B" stroke-width="1.3586" stroke-linecap="round" d="M66.335,50.936
			c11.125,0.943,46.415,5.054,71.361,14.293c19.771,7.315,31.551,7.986,44.673,2.195"/>
		<path fill="none" stroke="#E6720B" stroke-width="1.3586" stroke-linecap="round" d="M79.664,88.627
			c15.888-4.243,39.74-14.697,44.573-27.693c9.453-25.433,68.05,1.142,59.647-2.395"/>
		<path fill="none" stroke="#E6720B" stroke-width="2.7171" stroke-linecap="round" d="M224.817,94.603
			c-0.692-6.034-1.827-0.376,0-8.724"/>
		<path fill="none" stroke="#E6720B" stroke-width="2.7171" stroke-linecap="round" d="M244.315,98.176
			c-0.688-6.026-2.582-3.949-0.759-12.297"/>
		<path fill="none" stroke="#E6720B" stroke-width="2.7171" stroke-linecap="round" d="M263.931,99.289
			c2.468-5.548-3.677-7.574,2.129-13.844"/>
		<path fill="none" stroke="#E6720B" stroke-width="2.7171" stroke-linecap="round" d="M291.854,94.256
			c-0.692-6.026-11.306-2.91-9.482-11.257"/>
		<path fill="none" stroke="#E6720B" stroke-width="2.7171" stroke-linecap="round" d="M304.349,83.913
			c-7.434-1.009-4.472-7.478-12.68-5.099"/>
		<path fill="none" stroke="#E6720B" stroke-width="2.7171" stroke-linecap="round" d="M301.896,54.112
			c-7.427-1.01-2.019,2.357-10.227,4.729"/>
		<linearGradient id="SVGID_1_" gradientUnits="userSpaceOnUse" x1="187.4575" y1="67.0923" x2="289.3892" y2="67.0923">
			<stop  offset="0" style="stop-color:#F2A44C"/>
			<stop  offset="1" style="stop-color:#EE8A1A"/>
		</linearGradient>
		<path fill="url(#SVGID_1_)" d="M191.958,77.886c-4.207-3.05-7.287-14.492-0.619-19.045c3.897-2.659,19.111-6.396,42.444-6.255
			c40.115,0.235,44.064,2.15,48.23,4.361c9.876,5.246,8.955,17.365,2.406,20.938c-5.799,3.153-31.658,3.985-48.699,3.646
			C214.208,81.098,199.06,83.029,191.958,77.886z"/>
		<path fill="none" stroke="#E6720B" stroke-width="1.3586" stroke-linecap="round" d="M75.184,56.962
			c0,0,18.964,21.263,34.06,8.222c15.096-13.04,32.236-4.162,45.273-5.002c13.037-0.832,27.853,2.557,27.853,2.557"/>
	</g>
</g>
<g>
	<path fill="#414042" d="M11.158,11.499h8.01l-0.198,1.404h-6.498l-0.558,3.996h6.066l-0.198,1.404h-6.066l-0.648,4.536h6.822
		l-0.18,1.404H9.376L11.158,11.499z"/>
	<path fill="#414042" d="M20.284,22.029c0.228,0.348,0.492,0.624,0.792,0.828c0.3,0.205,0.702,0.306,1.206,0.306
		c0.216,0,0.438-0.024,0.666-0.072s0.438-0.126,0.63-0.234c0.192-0.108,0.354-0.243,0.486-0.405
		c0.132-0.162,0.216-0.357,0.252-0.585s0.012-0.414-0.072-0.558s-0.204-0.267-0.36-0.369c-0.156-0.102-0.339-0.183-0.549-0.243
		c-0.21-0.06-0.423-0.114-0.639-0.162c-0.384-0.084-0.75-0.18-1.098-0.288s-0.642-0.249-0.882-0.423
		c-0.24-0.174-0.42-0.399-0.54-0.675c-0.12-0.276-0.15-0.63-0.09-1.062c0.048-0.408,0.186-0.768,0.414-1.08
		c0.228-0.312,0.504-0.57,0.828-0.774c0.324-0.204,0.681-0.36,1.071-0.468c0.39-0.108,0.783-0.162,1.179-0.162
		c0.6,0,1.137,0.12,1.611,0.36c0.474,0.24,0.819,0.63,1.035,1.17l-1.278,0.774c-0.132-0.3-0.333-0.543-0.603-0.729
		s-0.615-0.279-1.035-0.279c-0.192,0-0.39,0.024-0.594,0.072s-0.393,0.12-0.567,0.216c-0.174,0.096-0.321,0.219-0.441,0.369
		c-0.12,0.15-0.192,0.321-0.216,0.513c-0.024,0.18,0.012,0.333,0.108,0.459s0.234,0.237,0.414,0.333
		c0.18,0.096,0.393,0.18,0.639,0.252c0.246,0.072,0.507,0.132,0.783,0.18c0.36,0.072,0.699,0.166,1.017,0.279
		c0.318,0.114,0.591,0.267,0.819,0.459c0.228,0.192,0.393,0.432,0.495,0.72c0.102,0.288,0.123,0.642,0.063,1.062
		c-0.06,0.48-0.21,0.888-0.45,1.224c-0.24,0.336-0.534,0.609-0.882,0.819c-0.348,0.21-0.729,0.363-1.143,0.459
		c-0.414,0.096-0.832,0.144-1.251,0.144c-0.72,0-1.326-0.111-1.818-0.333c-0.492-0.222-0.906-0.633-1.242-1.233L20.284,22.029z"/>
	<path fill="#414042" d="M34.342,17.925c-0.252-0.36-0.54-0.621-0.864-0.783c-0.324-0.162-0.696-0.243-1.116-0.243
		c-0.468,0-0.891,0.081-1.269,0.243s-0.708,0.387-0.99,0.675c-0.282,0.288-0.51,0.621-0.684,0.999
		c-0.174,0.378-0.291,0.783-0.351,1.215s-0.048,0.837,0.036,1.215c0.083,0.378,0.23,0.711,0.441,0.999
		c0.209,0.288,0.477,0.513,0.801,0.675c0.324,0.162,0.702,0.243,1.134,0.243c0.912,0,1.674-0.348,2.286-1.044l0.9,0.99
		c-0.468,0.468-0.993,0.81-1.575,1.026c-0.582,0.216-1.179,0.324-1.791,0.324c-0.648,0-1.227-0.108-1.737-0.324
		c-0.51-0.216-0.927-0.522-1.251-0.918c-0.324-0.396-0.555-0.864-0.693-1.404s-0.159-1.134-0.063-1.782
		c0.084-0.636,0.27-1.224,0.558-1.764s0.654-1.008,1.098-1.404c0.444-0.396,0.948-0.705,1.512-0.927
		c0.564-0.222,1.17-0.333,1.818-0.333c0.624,0,1.2,0.108,1.728,0.324c0.528,0.216,0.972,0.552,1.332,1.008L34.342,17.925z"/>
	<path fill="#414042" d="M38.05,10.635h1.404l-0.9,6.354h0.036c0.12-0.168,0.276-0.333,0.468-0.495
		c0.192-0.162,0.414-0.309,0.666-0.441c0.252-0.132,0.528-0.24,0.828-0.324c0.3-0.083,0.612-0.126,0.936-0.126
		c0.552,0,1.017,0.084,1.395,0.252c0.378,0.168,0.678,0.402,0.9,0.702c0.222,0.3,0.366,0.663,0.432,1.089
		c0.066,0.426,0.063,0.891-0.009,1.395l-0.72,5.202h-1.404l0.702-5.058c0.096-0.708,0.018-1.266-0.234-1.674
		c-0.252-0.408-0.708-0.612-1.368-0.612c-0.912,0-1.617,0.3-2.115,0.9s-0.813,1.38-0.945,2.34l-0.576,4.104h-1.404L38.05,10.635z"/>
	<path fill="#414042" d="M53.872,22.713c-0.588,0.648-1.2,1.101-1.836,1.359c-0.636,0.258-1.35,0.387-2.142,0.387
		c-0.66,0-1.239-0.117-1.737-0.351c-0.498-0.234-0.903-0.549-1.215-0.945s-0.528-0.864-0.648-1.404
		c-0.12-0.54-0.138-1.116-0.054-1.728c0.096-0.648,0.291-1.245,0.585-1.791s0.66-1.014,1.098-1.404
		c0.438-0.39,0.936-0.693,1.494-0.909c0.558-0.216,1.149-0.324,1.773-0.324c0.588,0,1.116,0.099,1.584,0.297
		c0.468,0.198,0.849,0.486,1.143,0.864c0.294,0.378,0.501,0.84,0.621,1.386c0.12,0.546,0.132,1.167,0.036,1.863l-0.072,0.45h-6.804
		c-0.024,0.36,0.015,0.705,0.117,1.035c0.102,0.33,0.255,0.618,0.459,0.864c0.204,0.246,0.459,0.441,0.765,0.585
		c0.306,0.144,0.65,0.216,1.035,0.216c0.612,0,1.143-0.108,1.593-0.324c0.45-0.216,0.873-0.534,1.269-0.954L53.872,22.713z
		 M53.169,19.275c0.072-0.72-0.081-1.296-0.459-1.728c-0.378-0.432-0.957-0.648-1.737-0.648c-0.78,0-1.443,0.216-1.989,0.648
		c-0.546,0.432-0.915,1.008-1.107,1.728H53.169z"/>
	<path fill="#414042" d="M57.058,17.817c0.06-0.384,0.099-0.744,0.117-1.08s0.045-0.642,0.081-0.918h1.35
		c-0.024,0.228-0.048,0.456-0.072,0.684c-0.024,0.229-0.054,0.462-0.09,0.702h0.036c0.12-0.204,0.282-0.402,0.486-0.594
		c0.204-0.192,0.438-0.363,0.702-0.513c0.264-0.15,0.552-0.27,0.864-0.36c0.312-0.09,0.642-0.135,0.99-0.135
		c0.096,0,0.189,0.006,0.279,0.018c0.09,0.012,0.183,0.036,0.279,0.072l-0.288,1.422c-0.216-0.072-0.462-0.108-0.738-0.108
		c-0.864,0-1.53,0.279-1.999,0.837c-0.468,0.558-0.77,1.323-0.903,2.295l-0.585,4.104h-1.409L57.058,17.817z"/>
	<path fill="#414042" d="M63.789,15.819h1.404l-1.17,8.424h-1.404L63.789,15.819z M63.933,12.525
		c0.036-0.276,0.168-0.516,0.396-0.72s0.486-0.306,0.774-0.306s0.516,0.102,0.684,0.306s0.234,0.444,0.198,0.72
		c-0.048,0.3-0.18,0.546-0.396,0.738c-0.216,0.192-0.475,0.288-0.774,0.288s-0.534-0.096-0.702-0.288
		C63.945,13.071,63.885,12.825,63.933,12.525z"/>
	<path fill="#414042" d="M73.689,17.925c-0.252-0.36-0.54-0.621-0.864-0.783c-0.324-0.162-0.696-0.243-1.116-0.243
		c-0.468,0-0.891,0.081-1.269,0.243s-0.708,0.387-0.99,0.675c-0.282,0.288-0.51,0.621-0.684,0.999
		c-0.174,0.378-0.291,0.783-0.351,1.215s-0.048,0.837,0.036,1.215c0.083,0.378,0.23,0.711,0.441,0.999
		c0.209,0.288,0.477,0.513,0.801,0.675c0.324,0.162,0.702,0.243,1.134,0.243c0.912,0,1.674-0.348,2.286-1.044l0.9,0.99
		c-0.468,0.468-0.993,0.81-1.575,1.026c-0.582,0.216-1.179,0.324-1.791,0.324c-0.648,0-1.227-0.108-1.737-0.324
		c-0.51-0.216-0.927-0.522-1.251-0.918c-0.324-0.396-0.555-0.864-0.693-1.404s-0.159-1.134-0.063-1.782
		c0.084-0.636,0.27-1.224,0.558-1.764s0.654-1.008,1.098-1.404c0.444-0.396,0.948-0.705,1.512-0.927
		c0.564-0.222,1.17-0.333,1.818-0.333c0.624,0,1.2,0.108,1.728,0.324c0.528,0.216,0.972,0.552,1.332,1.008L73.689,17.925z"/>
	<path fill="#414042" d="M77.397,10.635h1.404l-0.9,6.354h0.036c0.12-0.168,0.276-0.333,0.468-0.495
		c0.192-0.162,0.414-0.309,0.666-0.441c0.252-0.132,0.528-0.24,0.828-0.324c0.3-0.083,0.612-0.126,0.936-0.126
		c0.552,0,1.017,0.084,1.395,0.252c0.378,0.168,0.678,0.402,0.9,0.702c0.222,0.3,0.366,0.663,0.432,1.089
		c0.066,0.426,0.063,0.891-0.009,1.395l-0.72,5.202h-1.404l0.702-5.058c0.096-0.708,0.018-1.266-0.234-1.674
		c-0.252-0.408-0.708-0.612-1.368-0.612c-0.912,0-1.617,0.3-2.115,0.9s-0.813,1.38-0.945,2.34l-0.576,4.104h-1.404L77.397,10.635z"
		/>
	<path fill="#414042" d="M86.793,15.819h1.404l-1.17,8.424h-1.404L86.793,15.819z M86.937,12.525
		c0.036-0.276,0.168-0.516,0.396-0.72s0.486-0.306,0.774-0.306s0.516,0.102,0.684,0.306s0.234,0.444,0.198,0.72
		c-0.048,0.3-0.18,0.546-0.396,0.738c-0.216,0.192-0.475,0.288-0.774,0.288s-0.534-0.096-0.702-0.288
		C86.949,13.071,86.889,12.825,86.937,12.525z"/>
	<path fill="#414042" d="M90.735,16.898c0.504-0.443,1.065-0.771,1.683-0.981c0.618-0.209,1.233-0.315,1.845-0.315
		c1.248,0,2.106,0.294,2.574,0.882c0.468,0.588,0.618,1.482,0.45,2.682l-0.504,3.618c-0.036,0.24-0.06,0.489-0.072,0.747
		c-0.012,0.258-0.012,0.495,0,0.711h-1.35c-0.024-0.192-0.024-0.405,0-0.639c0.024-0.234,0.048-0.441,0.072-0.621h-0.036
		c-0.336,0.432-0.753,0.786-1.251,1.062c-0.498,0.276-1.071,0.414-1.719,0.414c-0.432,0-0.828-0.054-1.188-0.162
		c-0.36-0.108-0.669-0.267-0.927-0.477c-0.258-0.21-0.45-0.471-0.576-0.783s-0.159-0.672-0.099-1.08
		c0.096-0.696,0.351-1.242,0.765-1.638s0.903-0.69,1.467-0.882c0.564-0.192,1.158-0.312,1.782-0.36
		c0.624-0.048,1.194-0.072,1.71-0.072h0.54l0.036-0.252c0.096-0.612-0.018-1.074-0.342-1.386c-0.324-0.312-0.816-0.468-1.476-0.468
		c-0.456,0-0.915,0.075-1.377,0.225c-0.462,0.15-0.879,0.381-1.251,0.693L90.735,16.898z M94.335,20.193
		c-0.9,0-1.632,0.126-2.196,0.378s-0.888,0.666-0.972,1.242c-0.072,0.528,0.054,0.903,0.378,1.125
		c0.324,0.222,0.75,0.333,1.278,0.333c0.408,0,0.774-0.069,1.098-0.207c0.324-0.138,0.606-0.321,0.846-0.549
		c0.24-0.228,0.435-0.495,0.585-0.801c0.15-0.306,0.254-0.633,0.315-0.981l0.072-0.54H94.335z"/>
	<path fill="#414042" d="M111.039,17.925c-0.252-0.36-0.54-0.621-0.864-0.783c-0.324-0.162-0.696-0.243-1.116-0.243
		c-0.468,0-0.891,0.081-1.269,0.243s-0.708,0.387-0.99,0.675c-0.282,0.288-0.51,0.621-0.684,0.999
		c-0.174,0.378-0.291,0.783-0.351,1.215s-0.048,0.837,0.036,1.215c0.083,0.378,0.23,0.711,0.441,0.999
		c0.209,0.288,0.477,0.513,0.801,0.675c0.324,0.162,0.702,0.243,1.134,0.243c0.912,0,1.674-0.348,2.286-1.044l0.9,0.99
		c-0.468,0.468-0.993,0.81-1.575,1.026c-0.582,0.216-1.179,0.324-1.791,0.324c-0.648,0-1.227-0.108-1.737-0.324
		c-0.51-0.216-0.927-0.522-1.251-0.918c-0.324-0.396-0.555-0.864-0.693-1.404s-0.159-1.134-0.063-1.782
		c0.084-0.636,0.27-1.224,0.558-1.764s0.654-1.008,1.098-1.404c0.444-0.396,0.948-0.705,1.512-0.927
		c0.564-0.222,1.17-0.333,1.818-0.333c0.624,0,1.2,0.108,1.728,0.324c0.528,0.216,0.972,0.552,1.332,1.008L111.039,17.925z"/>
	<path fill="#414042" d="M112.929,20.031c0.096-0.66,0.294-1.26,0.594-1.8c0.3-0.54,0.678-1.005,1.134-1.395
		c0.456-0.39,0.975-0.693,1.557-0.909c0.582-0.216,1.197-0.324,1.845-0.324c0.648,0,1.233,0.108,1.755,0.324
		c0.522,0.216,0.954,0.519,1.296,0.909c0.341,0.39,0.587,0.855,0.738,1.395c0.15,0.54,0.177,1.141,0.081,1.8
		c-0.096,0.66-0.294,1.26-0.594,1.8c-0.3,0.54-0.675,1.005-1.125,1.395c-0.45,0.39-0.966,0.693-1.548,0.909
		c-0.582,0.216-1.197,0.324-1.845,0.324s-1.233-0.108-1.755-0.324c-0.522-0.216-0.954-0.519-1.296-0.909
		c-0.342-0.39-0.591-0.855-0.747-1.395C112.863,21.291,112.833,20.691,112.929,20.031z M114.441,20.031
		c-0.06,0.444-0.045,0.855,0.045,1.233s0.246,0.708,0.468,0.99c0.222,0.282,0.504,0.504,0.846,0.666
		c0.342,0.162,0.741,0.243,1.197,0.243c0.456,0,0.879-0.081,1.269-0.243c0.39-0.162,0.735-0.384,1.035-0.666
		c0.3-0.282,0.546-0.612,0.738-0.99c0.191-0.378,0.317-0.789,0.378-1.233c0.06-0.444,0.048-0.855-0.036-1.233
		c-0.084-0.378-0.237-0.708-0.459-0.99c-0.222-0.282-0.504-0.504-0.846-0.666c-0.342-0.162-0.741-0.243-1.197-0.243
		s-0.879,0.081-1.269,0.243c-0.39,0.162-0.735,0.384-1.035,0.666c-0.3,0.282-0.549,0.612-0.747,0.99
		C114.63,19.176,114.501,19.587,114.441,20.031z"/>
	<path fill="#414042" d="M125.564,10.635h1.403l-1.907,13.608h-1.404L125.564,10.635z"/>
	<path fill="#414042" d="M129.164,15.819h1.404l-1.17,8.424h-1.404L129.164,15.819z M129.309,12.525
		c0.035-0.276,0.167-0.516,0.396-0.72c0.228-0.204,0.486-0.306,0.774-0.306s0.516,0.102,0.684,0.306s0.234,0.444,0.198,0.72
		c-0.048,0.3-0.181,0.546-0.396,0.738s-0.474,0.288-0.773,0.288c-0.301,0-0.534-0.096-0.702-0.288S129.26,12.825,129.309,12.525z"/>
	<path fill="#414042" d="M137.444,11.499h1.512v5.508h0.216l5.797-5.508h2.178l-6.3,5.814l6.605,6.93h-2.214l-6.066-6.48h-0.216
		v6.48h-1.512V11.499z"/>
	<path fill="#414042" d="M147.992,19.275h4.41v1.296h-4.41V19.275z"/>
	<path fill="#414042" d="M159.674,24.243h-1.513v-10.8h-0.036l-2.285,1.926l-0.9-1.098l3.42-2.772h1.314V24.243z"/>
	<path fill="#414042" d="M164.103,22.515l4.806-4.68c0.3-0.288,0.563-0.555,0.792-0.801c0.228-0.246,0.417-0.486,0.567-0.72
		c0.149-0.234,0.261-0.477,0.333-0.729c0.071-0.252,0.107-0.534,0.107-0.846c0-0.336-0.06-0.636-0.18-0.9
		c-0.12-0.264-0.285-0.489-0.495-0.675c-0.21-0.186-0.456-0.33-0.738-0.432c-0.282-0.102-0.585-0.153-0.909-0.153
		c-0.647,0-1.182,0.186-1.602,0.558s-0.69,0.864-0.81,1.476l-1.639-0.144c0.084-0.516,0.243-0.975,0.478-1.377
		c0.233-0.402,0.527-0.735,0.882-0.999c0.354-0.264,0.753-0.465,1.197-0.603c0.443-0.138,0.924-0.207,1.439-0.207
		c0.528,0,1.026,0.075,1.494,0.225s0.879,0.369,1.233,0.657c0.354,0.288,0.636,0.648,0.846,1.08s0.314,0.93,0.314,1.494
		c0,0.504-0.068,0.96-0.207,1.368c-0.138,0.408-0.323,0.783-0.558,1.125c-0.234,0.342-0.498,0.666-0.792,0.972
		s-0.603,0.609-0.927,0.909l-3.924,3.69v0.036h6.498v1.404h-8.208V22.515z"/>
	<path fill="#414042" d="M179.798,11.499h2.25l4.32,9.99h0.037l4.355-9.99h2.195v12.744h-1.512V13.551h-0.035l-4.572,10.692h-0.918
		l-4.573-10.692h-0.036v10.692h-1.512V11.499z"/>
	<path fill="#414042" d="M206.959,23.379c-0.732,0.408-1.502,0.708-2.312,0.9s-1.629,0.288-2.457,0.288
		c-0.996,0-1.908-0.162-2.736-0.486c-0.828-0.324-1.545-0.78-2.15-1.368s-1.078-1.293-1.414-2.115
		c-0.336-0.822-0.504-1.731-0.504-2.727c0-1.008,0.178-1.923,0.531-2.745c0.354-0.822,0.844-1.523,1.467-2.106
		c0.625-0.582,1.352-1.035,2.18-1.359c0.826-0.324,1.721-0.486,2.682-0.486c0.84,0,1.646,0.126,2.42,0.378
		c0.775,0.252,1.467,0.684,2.08,1.296l-1.135,1.188c-0.432-0.468-0.957-0.828-1.574-1.08c-0.619-0.252-1.252-0.378-1.9-0.378
		c-0.73,0-1.41,0.132-2.033,0.396c-0.625,0.264-1.168,0.63-1.629,1.098c-0.463,0.468-0.822,1.026-1.08,1.674
		s-0.387,1.356-0.387,2.124c0,0.756,0.129,1.458,0.387,2.106s0.617,1.209,1.08,1.683c0.461,0.474,1.018,0.843,1.664,1.107
		c0.648,0.264,1.363,0.396,2.143,0.396c0.516,0,1.057-0.063,1.621-0.189c0.562-0.126,1.08-0.309,1.547-0.549v-3.906h-2.934v-1.404
		h4.445V23.379z"/>
	<path fill="#414042" d="M215.024,24.243h-1.512v-10.8h-0.037l-2.285,1.926l-0.9-1.098l3.42-2.772h1.314V24.243z"/>
	<path fill="#414042" d="M222.223,16.809l0.037,0.036c0.24-0.132,0.518-0.228,0.836-0.288s0.609-0.09,0.873-0.09
		c0.553,0,1.064,0.096,1.539,0.288s0.883,0.465,1.225,0.819s0.609,0.777,0.801,1.269s0.287,1.032,0.287,1.62
		c0,0.624-0.107,1.182-0.322,1.674c-0.217,0.492-0.518,0.909-0.9,1.251c-0.385,0.342-0.838,0.606-1.359,0.792
		s-1.084,0.279-1.684,0.279s-1.16-0.093-1.682-0.279c-0.523-0.186-0.977-0.45-1.359-0.792c-0.385-0.342-0.684-0.759-0.9-1.251
		s-0.324-1.05-0.324-1.674c0-0.732,0.113-1.374,0.342-1.926c0.229-0.552,0.516-1.104,0.865-1.656l3.383-5.382h1.764L222.223,16.809z
		 M223.555,17.763c-0.383,0-0.744,0.063-1.08,0.189s-0.627,0.306-0.873,0.54s-0.439,0.519-0.584,0.855s-0.217,0.708-0.217,1.116
		c0,0.42,0.072,0.795,0.217,1.125s0.338,0.612,0.584,0.846s0.537,0.414,0.873,0.54s0.697,0.189,1.08,0.189
		c0.385,0,0.744-0.063,1.08-0.189s0.627-0.306,0.873-0.54s0.441-0.516,0.586-0.846c0.143-0.33,0.215-0.705,0.215-1.125
		c0-0.408-0.072-0.78-0.215-1.116c-0.145-0.336-0.34-0.621-0.586-0.855s-0.537-0.414-0.873-0.54S223.94,17.763,223.555,17.763z"/>
	<path fill="#414042" d="M237.092,12.903h-5.203l-0.053,3.438c0.238-0.12,0.506-0.201,0.801-0.243
		c0.293-0.042,0.572-0.063,0.836-0.063c0.613,0,1.168,0.105,1.666,0.315s0.926,0.504,1.287,0.882
		c0.359,0.378,0.635,0.822,0.828,1.332c0.191,0.51,0.287,1.065,0.287,1.665c0,0.636-0.111,1.215-0.332,1.737
		c-0.223,0.522-0.529,0.966-0.918,1.332c-0.391,0.366-0.854,0.651-1.387,0.855c-0.535,0.204-1.113,0.306-1.736,0.306
		c-0.973,0-1.756-0.21-2.35-0.63s-1.064-0.984-1.414-1.692l1.514-0.576c0.215,0.48,0.529,0.867,0.943,1.161s0.893,0.441,1.432,0.441
		c0.385,0,0.74-0.069,1.07-0.207c0.33-0.138,0.619-0.336,0.865-0.594s0.441-0.567,0.584-0.927c0.145-0.36,0.217-0.762,0.217-1.206
		c0-0.468-0.082-0.882-0.244-1.242c-0.16-0.36-0.383-0.663-0.666-0.909c-0.281-0.246-0.613-0.432-0.998-0.558
		s-0.799-0.189-1.242-0.189c-0.432,0-0.875,0.075-1.332,0.225c-0.455,0.15-0.875,0.339-1.26,0.567l0.125-6.624h6.68V12.903z"/>
	<path fill="#414042" d="M247.1,12.903h-5.203l-0.053,3.438c0.238-0.12,0.506-0.201,0.801-0.243
		c0.293-0.042,0.572-0.063,0.836-0.063c0.613,0,1.168,0.105,1.666,0.315s0.926,0.504,1.287,0.882
		c0.359,0.378,0.635,0.822,0.828,1.332c0.191,0.51,0.287,1.065,0.287,1.665c0,0.636-0.111,1.215-0.332,1.737
		c-0.223,0.522-0.529,0.966-0.918,1.332c-0.391,0.366-0.854,0.651-1.387,0.855c-0.535,0.204-1.113,0.306-1.736,0.306
		c-0.973,0-1.756-0.21-2.35-0.63s-1.064-0.984-1.414-1.692l1.514-0.576c0.215,0.48,0.529,0.867,0.943,1.161s0.893,0.441,1.432,0.441
		c0.385,0,0.74-0.069,1.07-0.207c0.33-0.138,0.619-0.336,0.865-0.594s0.441-0.567,0.584-0.927c0.145-0.36,0.217-0.762,0.217-1.206
		c0-0.468-0.082-0.882-0.244-1.242c-0.16-0.36-0.383-0.663-0.666-0.909c-0.281-0.246-0.613-0.432-0.998-0.558
		s-0.799-0.189-1.242-0.189c-0.432,0-0.875,0.075-1.332,0.225c-0.455,0.15-0.875,0.339-1.26,0.567l0.125-6.624h6.68V12.903z"/>
</g>
</svg>
