<?xml version="1.0" encoding="utf-8"?>
<!-- Generator: Adobe Illustrator 16.0.0, SVG Export Plug-In . SVG Version: 6.00 Build 0)  -->
<!DOCTYPE svg PUBLIC "-//W3C//DTD SVG 1.1//EN" "http://www.w3.org/Graphics/SVG/1.1/DTD/svg11.dtd">
<svg version="1.1" id="Layer_1" xmlns="http://www.w3.org/2000/svg" xmlns:xlink="http://www.w3.org/1999/xlink" x="0px" y="0px"
	 width="1989px" height="720px" viewBox="0 0 1989 720" enable-background="new 0 0 1989 720" xml:space="preserve">
<g>
	<g>
		<defs>
			<rect id="SVGID_1_" x="-53.481" y="-30" width="1770.052" height="770.778"/>
		</defs>
		<clipPath id="SVGID_2_">
			<use xlink:href="#SVGID_1_"  overflow="visible"/>
		</clipPath>
		<g clip-path="url(#SVGID_2_)">
			
				<line fill="none" stroke="#424143" stroke-width="4.5383" stroke-linecap="round" stroke-linejoin="round" stroke-miterlimit="10" x1="258.641" y1="615.799" x2="244.87" y2="31.47"/>
			
				<polyline fill="none" stroke="#424143" stroke-width="4.5383" stroke-linecap="round" stroke-linejoin="round" stroke-miterlimit="10" points="
				193.597,701.756 244.013,25.95 492.224,655.465 			"/>
			<g opacity="0.75">
				<g>
					<defs>
						<rect id="SVGID_3_" x="25.423" y="75.323" width="549.355" height="408.137"/>
					</defs>
					<clipPath id="SVGID_4_">
						<use xlink:href="#SVGID_3_"  overflow="visible"/>
					</clipPath>
					<g clip-path="url(#SVGID_4_)">
						<defs>
							<rect id="SVGID_5_" x="25.423" y="75.323" width="549.355" height="408.137"/>
						</defs>
						<clipPath id="SVGID_6_">
							<use xlink:href="#SVGID_5_"  overflow="visible"/>
						</clipPath>
						<g transform="matrix(1 0 0 1 -1.907349e-06 -7.629395e-06)" clip-path="url(#SVGID_6_)">
							
								<image overflow="visible" width="603" height="448" xlink:href="3F538245BF5084B.png"  transform="matrix(0.911 0 0 0.911 25.4233 75.3228)">
							</image>
						</g>
					</g>
				</g>
			</g>
		</g>
		<g clip-path="url(#SVGID_2_)">
			<defs>
				<polygon id="SVGID_7_" points="48.852,134.662 73.232,459.371 551.225,423.491 526.847,98.751 				"/>
			</defs>
			<clipPath id="SVGID_8_">
				<use xlink:href="#SVGID_7_"  overflow="visible"/>
			</clipPath>
			
				<linearGradient id="SVGID_9_" gradientUnits="userSpaceOnUse" x1="680.064" y1="209.1641" x2="687.6564" y2="209.1641" gradientTransform="matrix(4.9819 -0.5423 -0.5423 -4.9819 -2764.0303 1666.9724)">
				<stop  offset="0" style="stop-color:#FFFFFF"/>
				<stop  offset="0.4186" style="stop-color:#FFFFFF"/>
				<stop  offset="1" style="stop-color:#221F1F"/>
			</linearGradient>
			<polygon clip-path="url(#SVGID_8_)" fill="url(#SVGID_9_)" points="10.03,102.969 545.37,44.702 590.049,455.154 54.71,513.42 
							"/>
		</g>
		<g clip-path="url(#SVGID_2_)">
			<defs>
				<rect id="SVGID_10_" x="-53.481" y="-30" width="1770.052" height="770.778"/>
			</defs>
			<clipPath id="SVGID_11_">
				<use xlink:href="#SVGID_10_"  overflow="visible"/>
			</clipPath>
			<path clip-path="url(#SVGID_11_)" fill="#F1F1F2" d="M550.092,422.465l-125.763,8.97L73.232,459.371l-24.38-324.74
				l477.012-35.527c0,0,7.759,133.046,8.894,143.41C535.922,252.911,550.092,422.465,550.092,422.465"/>
		</g>
		<g clip-path="url(#SVGID_2_)">
			<defs>
				<polygon id="SVGID_12_" points="47.411,115.633 76.145,498.209 554.171,462.33 525.435,79.754 				"/>
			</defs>
			<clipPath id="SVGID_13_">
				<use xlink:href="#SVGID_12_"  overflow="visible"/>
			</clipPath>
			<path clip-path="url(#SVGID_13_)" fill="#5E160C" d="M65.35,235.968c-1.962,9.936-5.121,19.61-13.4,30.743
				c1.687,1.027,3.312,2.084,4.968,3.127c9.568-12.925,13.003-24.226,15.211-35.389c-0.921,0.2-1.841,0.399-2.761,0.599
				C68.05,235.339,66.731,235.661,65.35,235.968"/>
			<path clip-path="url(#SVGID_13_)" fill="#5E160C" d="M249.226,132.454c-12.144,11.255-23.153,21.665-39.684,27.032
				c-16.129,5.383-31.585,3.972-48.604,3.035c-1.319-0.076-2.638-0.152-3.986-0.199c-1.164-0.061-2.301-0.091-3.466-0.137
				c-20.056-0.721-42.075,1.011-61.211,16.974c-18.951,16.114-22.294,31.663-24.932,46.029c-0.245,1.503-0.52,2.975-0.798,4.478
				c0.77-0.185,1.505-0.368,2.241-0.506c1.531-0.337,3.035-0.66,4.537-0.982c0.153-0.965,0.369-1.962,0.553-2.912
				c2.729-14.03,5.856-27.799,22.878-42.197c16.191-13.446,34.806-15.486,53.265-15.087c1.902,0.046,3.866,0.107,5.797,0.198
				c0.521,0.016,1.044,0.03,1.564,0.046c18.154,0.844,35.848,2.792,54.463-3.356c19.074-6.195,31.647-18.415,44.834-30.345
				c-2.023-0.583-4.079-1.15-6.133-1.718C250.115,132.699,249.654,132.562,249.226,132.454"/>
			<path clip-path="url(#SVGID_13_)" fill="#5E160C" d="M469.777,166.049c0.553-1.18-56.855-33.902-80.346-43.377
				c-0.186-0.077-0.276-0.138-0.43-0.2c-2.974-1.472-6.041-2.882-9.076-4.277c-22.326-10.212-46.674-17.879-69.704-16.76
				c-25.638,1.304-41.891,13.77-55.845,26.297c2.516,0.705,5.061,1.441,7.544,2.147c13.309-11.485,27.722-21.62,49.526-22.663
				c19.352-0.89,40.326,5.105,60.014,13.585c3.037,1.303,6.072,2.653,9.047,4.049c1.901,0.888,3.803,1.809,5.674,2.698
				c24.104,9.813,80.254,41.276,79.731,42.396C467.201,168.641,468.488,167.352,469.777,166.049"/>
			<path clip-path="url(#SVGID_13_)" fill="#BE2026" d="M539.756,185.967c-10.948-6.502-20.638-16.713-31.187-27.632
				c-2.117-2.176-4.233-4.384-6.379-6.592c-0.276-0.229-0.491-0.46-0.705-0.706c-15.795-16.053-33.916-31.815-56.948-37.964
				c-20.667-5.505-42.84-1.305-64.612,5.121c3.035,1.379,6.103,2.806,9.076,4.277c19.073-5.152,38.332-7.987,55.139-3.435
				c19.595,5.26,36.003,19.09,50.413,33.441c0.553,0.553,1.104,1.09,1.598,1.61c1.625,1.641,3.22,3.236,4.784,4.876
				c12.203,12.558,23.244,24.517,36.799,32.614C538.377,189.708,539.083,187.838,539.756,185.967"/>
			<path clip-path="url(#SVGID_13_)" fill="#BE2026" d="M311.14,136.731c-18.185,1.856-33.181-2.222-49.22-6.853
				c-2.483-0.706-5.028-1.426-7.544-2.147c-0.46-0.106-0.857-0.214-1.287-0.338c-18.981-5.273-40.143-9.43-61.915-0.551
				c-18.583,7.65-29.224,21.466-37.688,35.343c1.165,0.03,2.302,0.076,3.466,0.137c1.349,0.047,2.667,0.123,3.986,0.199
				c8.064-12.648,17.602-24.179,33.364-30.619c18.645-7.514,36.891-4.294,54.924,0.552c0.428,0.107,0.889,0.245,1.318,0.353
				c2.054,0.567,4.109,1.134,6.165,1.718c17.571,4.952,34.712,10.089,55.842,7.973c23.03-2.208,44.957-10.84,67.956-17.647
				c-2.975-1.396-6.01-2.746-9.047-4.049C350.884,127.302,331.195,134.754,311.14,136.731"/>
			<path clip-path="url(#SVGID_13_)" fill="#BE2026" d="M150.019,167.981c-9.752,16.912-17.722,32.597-35.049,44.144
				c-15.365,10.381-27.968,13.217-41.646,16.053c-1.502,0.322-3.006,0.645-4.537,0.982c-0.736,0.168-1.472,0.322-2.241,0.506
				c-14.351,3.297-29.898,8.264-44.003,25.009c1.594,1.087,3.22,2.206,4.781,3.326c11.961-14.137,24.964-18.845,38.026-22.018
				c1.381-0.322,2.7-0.645,4.018-0.936c0.92-0.2,1.84-0.399,2.761-0.599c7.299-1.579,14.598-3.051,22.233-5.643
				c7.574-2.561,15.394-6.225,24.103-12.052c19.412-12.91,28.243-30.681,38.669-48.146c0.093-0.122,0.157-0.244,0.247-0.383
				c-0.521-0.016-1.043-0.03-1.564-0.046C153.885,168.088,151.982,168.027,150.019,167.981"/>
			<path clip-path="url(#SVGID_13_)" fill="#5E2B81" d="M534.79,318.874c1.992-9.967,5.212-19.688,13.461-30.758
				c-1.653-1.058-3.28-2.131-4.905-3.205c-9.723,12.864-13.155,24.227-15.393,35.419c0.947-0.186,1.867-0.383,2.787-0.568
				C532.121,319.471,533.44,319.181,534.79,318.874"/>
			<path clip-path="url(#SVGID_13_)" fill="#5E2B81" d="M350.424,424.211c11.929-11.575,22.845-22.278,39.467-27.92
				c16.224-5.628,31.864-4.309,49.098-3.497c1.317,0.078,2.667,0.123,4.018,0.185c1.164,0.046,2.299,0.092,3.495,0.123
				c20.238,0.612,42.44-1.197,61.516-17.219c18.952-16.146,22.173-31.725,24.779-46.184c0.306-1.503,0.52-2.99,0.826-4.478
				c-0.797,0.139-1.502,0.322-2.3,0.475c-1.531,0.307-3.036,0.644-4.539,0.936c-0.183,0.996-0.335,1.962-0.55,2.943
				c-2.67,14.076-5.736,27.891-22.755,42.351c-16.192,13.522-34.929,15.608-53.574,15.286c-1.993-0.016-3.924-0.076-5.888-0.152
				c-0.49-0.016-1.011-0.031-1.563-0.047c-18.371-0.752-36.278-2.561-55.047,3.896c-19.165,6.469-31.647,19.043-44.587,31.339
				c2.084,0.553,4.168,1.105,6.256,1.643C349.534,423.997,349.964,424.104,350.424,424.211"/>
			<path clip-path="url(#SVGID_13_)" fill="#5E2B81" d="M100.095,363.969c-1.593,12.573,19.043,41.292,46.98,47.011
				c17.972,3.834,38.701,15.978,62.191,26.541c0.186,0.077,0.307,0.153,0.459,0.215c3.066,1.364,6.167,2.729,9.293,4.049
				c22.938,9.675,47.749,16.773,70.9,15.087c25.791-1.916,41.735-14.858,55.477-27.783c-2.607-0.69-5.152-1.364-7.729-2.039
				c-13.094,11.867-27.263,22.385-49.188,23.996c-19.474,1.35-40.784-4.154-61.027-12.158c-3.125-1.228-6.224-2.516-9.32-3.85
				c-1.932-0.844-3.866-1.718-5.795-2.576c-24.197-10.87-45.449-23.199-65.197-27.615c-19.107-3.956-40.695-26.495-39.376-40.954
				c-1.87,0.062-3.772,0.077-5.735,0.092C101.416,363.983,100.802,363.983,100.095,363.969"/>
			<path clip-path="url(#SVGID_13_)" fill="#91257D" d="M55.016,379.486c11.347,6.024,21.621,15.931,32.813,26.557
				c2.208,2.115,4.445,4.262,6.746,6.408c0.245,0.215,0.491,0.445,0.736,0.674c16.711,15.609,35.695,30.852,59.094,36.172
				c20.978,4.769,43.024-0.291,64.613-7.513c-3.126-1.304-6.227-2.685-9.293-4.049c-18.981,5.827-38.147,9.431-55.258,5.489
				c-19.901-4.6-37.078-17.924-52.287-31.893c-0.583-0.537-1.164-1.058-1.717-1.594c-1.719-1.565-3.374-3.145-5.03-4.708
				c-12.939-12.205-24.687-23.858-38.699-31.371C56.152,375.591,55.601,377.537,55.016,379.486"/>
			<path clip-path="url(#SVGID_13_)" fill="#91257D" d="M287.712,421.1c18.308-2.285,33.578,1.564,49.954,5.949
				c2.577,0.675,5.122,1.349,7.729,2.039c0.396,0.107,0.857,0.214,1.255,0.322c19.351,4.999,40.817,8.878,62.499-0.322
				c18.584-7.927,29.01-21.957,37.352-35.986c-1.196-0.031-2.361-0.077-3.495-0.123c-1.351-0.062-2.7-0.106-4.018-0.185
				c-8.005,12.834-17.358,24.518-33.091,31.203c-18.674,7.82-37.135,4.83-55.474,0.214c-0.46-0.107-0.891-0.214-1.349-0.32
				c-2.088-0.537-4.172-1.09-6.256-1.643c-17.879-4.736-35.389-9.536-56.764-6.943c-23.185,2.758-45.018,12.098-67.896,19.732
				c3.067,1.319,6.166,2.606,9.291,3.85C247.906,431.648,267.502,423.584,287.712,421.1"/>
			<path clip-path="url(#SVGID_13_)" fill="#91257D" d="M449.875,387.229c9.598-17.112,17.512-32.982,34.988-44.62
				c15.367-10.457,28.153-13.201,41.921-15.961c1.503-0.307,3.008-0.614,4.539-0.951c0.798-0.168,1.503-0.306,2.3-0.475
				c14.446-3.188,30.056-8.02,44.313-24.533c-1.625-1.12-3.249-2.27-4.844-3.419c-12.054,13.983-25.116,18.537-38.303,21.604
				c-1.35,0.307-2.669,0.597-4.05,0.888c-0.948,0.185-1.84,0.382-2.787,0.568c-7.301,1.533-14.723,2.976-22.357,5.536
				c-7.667,2.53-15.549,6.179-24.289,12.051c-19.595,13.019-28.396,31.004-38.609,48.683c-0.061,0.139-0.182,0.277-0.243,0.414
				c0.553,0.016,1.073,0.031,1.563,0.047C445.981,387.137,447.912,387.197,449.875,387.229"/>
			<g opacity="0.6" clip-path="url(#SVGID_13_)">
				<g>
					<defs>
						<rect id="SVGID_14_" x="436.503" y="117.673" width="85.375" height="75.669"/>
					</defs>
					<clipPath id="SVGID_15_">
						<use xlink:href="#SVGID_14_"  overflow="visible"/>
					</clipPath>
					<path clip-path="url(#SVGID_15_)" fill="#5E2B81" d="M438.774,152.816c1.286-19.61,20.453-34.316,42.779-32.843
						c22.294,1.486,39.346,18.598,38.026,38.21c-1.289,19.626-20.395,34.314-42.719,32.843
						C454.536,189.539,437.486,172.458,438.774,152.816"/>
					<path clip-path="url(#SVGID_15_)" fill="none" stroke="#7B3693" stroke-width="3.6319" stroke-miterlimit="10" d="
						M438.774,152.816c1.286-19.61,20.453-34.316,42.779-32.843c22.294,1.486,39.346,18.598,38.026,38.21
						c-1.289,19.626-20.395,34.314-42.719,32.843C454.536,189.539,437.486,172.458,438.774,152.816z"/>
				</g>
			</g>
			<g opacity="0.6" clip-path="url(#SVGID_13_)">
				<g>
					<defs>
						<rect id="SVGID_16_" x="56.551" y="343.191" width="85.372" height="75.669"/>
					</defs>
					<clipPath id="SVGID_17_">
						<use xlink:href="#SVGID_16_"  overflow="visible"/>
					</clipPath>
					<path clip-path="url(#SVGID_17_)" fill="#931A1D" d="M58.819,378.32c1.29-19.598,20.455-34.3,42.748-32.828
						c22.324,1.487,39.377,18.583,38.058,38.211c-1.287,19.626-20.454,34.33-42.748,32.842
						C74.582,415.06,57.501,397.962,58.819,378.32"/>
					<path clip-path="url(#SVGID_17_)" fill="none" stroke="#A73123" stroke-width="3.6319" stroke-miterlimit="10" d="
						M58.819,378.32c1.29-19.598,20.455-34.3,42.748-32.828c22.324,1.487,39.377,18.583,38.058,38.211
						c-1.287,19.626-20.454,34.33-42.748,32.842C74.582,415.06,57.501,397.962,58.819,378.32z"/>
				</g>
			</g>
			<path clip-path="url(#SVGID_13_)" fill="#5E2B81" d="M94.821,324.178c0,0-10.61,11.087-8.188,22.479l5.397,1.12
				c-2.116-9.83,6.992-19.903,6.992-19.903L94.821,324.178z"/>
			<path clip-path="url(#SVGID_13_)" fill="#5E2B81" d="M86.726,304.752c0,0-10.274,11.423-7.482,22.74l5.43,0.919
				c-2.395-9.752,6.376-20.088,6.376-20.088L86.726,304.752z"/>
			<path clip-path="url(#SVGID_13_)" fill="#5E2B81" d="M76.239,311.789c0,0-10.796-10.947-22.266-8.877l-1.226,5.382
				c9.874-1.794,19.627,7.575,19.627,7.575L76.239,311.789z"/>
			<path clip-path="url(#SVGID_13_)" fill="#5E160C" d="M502.804,200.226c0,0-3.006-15.087-13.74-19.657l-3.984,3.803
				c9.261,3.94,12.266,17.157,12.266,17.157L502.804,200.226z"/>
			<path clip-path="url(#SVGID_13_)" fill="#5E160C" d="M522.737,210.008c0,0,4.754-14.611-2.392-23.842l-5.336,1.365
				c6.162,7.957,2.33,20.944,2.33,20.944L522.737,210.008z"/>
			<path clip-path="url(#SVGID_13_)" fill="#5E160C" d="M547.823,212.585c0,0-3.007-15.072-13.738-19.642l-3.988,3.803
				c9.232,3.94,12.268,17.156,12.268,17.156L547.823,212.585z"/>
			<path clip-path="url(#SVGID_13_)" fill="#5E2B81" d="M368.609,303.464c1.657-17.726,3.526-34.454,16.252-47.917
				c11.225-11.913,22.48-15.318,34.285-18c1.289-0.292,2.609-0.568,3.928-0.859c0.611-0.153,1.287-0.291,1.929-0.444
				c12.546-2.776,25.455-6.118,37.536-19.29l-4.293-3.956c-10.425,11.362-21.404,14.597-32.934,17.219
				c-1.137,0.246-2.332,0.506-3.497,0.752c-0.796,0.183-1.626,0.367-2.423,0.537c-6.38,1.441-12.881,3.036-19.381,5.98
				c-6.5,2.943-13.004,7.236-19.412,14.06c-14.444,15.318-16.189,34.438-17.939,52.944c0,0.14-0.029,0.276-0.029,0.431
				c0.459-0.108,0.857-0.199,1.286-0.322C365.511,304.23,367.076,303.847,368.609,303.464"/>
			<path clip-path="url(#SVGID_13_)" fill="#5E2B81" d="M404.274,365.471c1.657-17.741,3.526-34.454,16.223-47.932
				c11.222-11.883,22.478-15.302,34.283-17.985c1.288-0.291,2.608-0.582,3.925-0.874c0.646-0.137,1.289-0.276,1.933-0.429
				c12.543-2.775,25.424-6.118,37.536-19.305l-4.323-3.924c-10.397,11.36-21.374,14.581-32.845,17.188
				c-1.195,0.261-2.361,0.506-3.525,0.781c-0.828,0.184-1.625,0.338-2.424,0.522c-6.41,1.441-12.909,3.036-19.41,5.996
				c-6.471,2.927-12.972,7.221-19.412,14.028c-14.414,15.334-16.192,34.469-17.909,52.961c0,0.138-0.03,0.275-0.03,0.415
				c0.428-0.092,0.827-0.2,1.286-0.323C401.145,366.222,402.74,365.838,404.274,365.471"/>
			<g opacity="0.6" clip-path="url(#SVGID_13_)">
				<g>
					<defs>
						<rect id="SVGID_18_" x="390.322" y="198.447" width="60.562" height="56.979"/>
					</defs>
					<clipPath id="SVGID_19_">
						<use xlink:href="#SVGID_18_"  overflow="visible"/>
					</clipPath>
					<path clip-path="url(#SVGID_19_)" fill="#5E2B81" d="M395.502,241.149c-6.962-12.219-1.286-28.473,12.636-36.308
						c13.861-7.866,30.727-4.339,37.626,7.865c6.901,12.206,1.228,28.475-12.634,36.324
						C419.208,256.881,402.404,253.356,395.502,241.149"/>
					<path clip-path="url(#SVGID_19_)" fill="none" stroke="#7B3693" stroke-width="3.6319" stroke-miterlimit="10" d="
						M395.502,241.149c-6.962-12.219-1.286-28.473,12.636-36.308c13.861-7.866,30.727-4.339,37.626,7.865
						c6.901,12.206,1.228,28.475-12.634,36.324C419.208,256.881,402.404,253.356,395.502,241.149z"/>
				</g>
			</g>
			<g opacity="0.6" clip-path="url(#SVGID_13_)">
				<g>
					<defs>
						<rect id="SVGID_20_" x="363.273" y="263.583" width="36.769" height="34.729"/>
					</defs>
					<clipPath id="SVGID_21_">
						<use xlink:href="#SVGID_20_"  overflow="visible"/>
					</clipPath>
					<path clip-path="url(#SVGID_21_)" fill="#5E2B81" d="M367.137,289.143c-3.987-7.039-0.705-16.421,7.298-20.959
						c7.974-4.509,17.757-2.5,21.714,4.553c4.015,7.038,0.733,16.406-7.3,20.96C380.844,298.22,371.125,296.181,367.137,289.143"/>
					<path clip-path="url(#SVGID_21_)" fill="none" stroke="#7B3693" stroke-width="3.6319" stroke-miterlimit="10" d="
						M367.137,289.143c-3.987-7.039-0.705-16.421,7.298-20.959c7.974-4.509,17.757-2.5,21.714,4.553
						c4.015,7.038,0.733,16.406-7.3,20.96C380.844,298.22,371.125,296.181,367.137,289.143z"/>
				</g>
			</g>
			<g opacity="0.6" clip-path="url(#SVGID_13_)">
				<g>
					<defs>
						<rect id="SVGID_22_" x="327.425" y="337.917" width="22.907" height="21.743"/>
					</defs>
					<clipPath id="SVGID_23_">
						<use xlink:href="#SVGID_22_"  overflow="visible"/>
					</clipPath>
					<path clip-path="url(#SVGID_23_)" fill="#5E2B81" d="M330.583,353.465c-2.268-4.018-0.399-9.353,4.201-11.944
						c4.54-2.606,10.089-1.427,12.359,2.591c2.27,4.017,0.397,9.353-4.141,11.959C338.404,358.663,332.852,357.497,330.583,353.465"
						/>
					<path clip-path="url(#SVGID_23_)" fill="none" stroke="#7B3693" stroke-width="3.6319" stroke-miterlimit="10" d="
						M330.583,353.465c-2.268-4.018-0.399-9.353,4.201-11.944c4.54-2.606,10.089-1.427,12.359,2.591
						c2.27,4.017,0.397,9.353-4.141,11.959C338.404,358.663,332.852,357.497,330.583,353.465z"/>
				</g>
			</g>
			<g opacity="0.6" clip-path="url(#SVGID_13_)">
				<g>
					<defs>
						<rect id="SVGID_24_" x="388.451" y="341.98" width="22.906" height="21.712"/>
					</defs>
					<clipPath id="SVGID_25_">
						<use xlink:href="#SVGID_24_"  overflow="visible"/>
					</clipPath>
					<path clip-path="url(#SVGID_25_)" fill="#5E2B81" d="M391.639,357.513c-2.269-4.018-0.429-9.368,4.141-11.975
						c4.568-2.562,10.151-1.411,12.42,2.606c2.238,4.047,0.368,9.384-4.202,11.975C399.459,362.711,393.878,361.53,391.639,357.513"
						/>
					<path clip-path="url(#SVGID_25_)" fill="none" stroke="#7B3693" stroke-width="3.6319" stroke-miterlimit="10" d="
						M391.639,357.513c-2.269-4.018-0.429-9.368,4.141-11.975c4.568-2.562,10.151-1.411,12.42,2.606
						c2.238,4.047,0.368,9.384-4.202,11.975C399.459,362.711,393.878,361.53,391.639,357.513z"/>
				</g>
			</g>
			<g opacity="0.6" clip-path="url(#SVGID_13_)">
				<g>
					<defs>
						<rect id="SVGID_26_" x="288.017" y="354.922" width="18.707" height="17.755"/>
					</defs>
					<clipPath id="SVGID_27_">
						<use xlink:href="#SVGID_26_"  overflow="visible"/>
					</clipPath>
					<path clip-path="url(#SVGID_27_)" fill="#5E2B81" d="M290.992,367.388c-1.747-3.098-0.306-7.222,3.222-9.2
						c3.525-1.993,7.759-1.104,9.536,2.009c1.748,3.098,0.338,7.206-3.188,9.215C297.034,371.389,292.74,370.5,290.992,367.388"/>
					<path clip-path="url(#SVGID_27_)" fill="none" stroke="#7B3693" stroke-width="3.6319" stroke-miterlimit="10" d="
						M290.992,367.388c-1.747-3.098-0.306-7.222,3.222-9.2c3.525-1.993,7.759-1.104,9.536,2.009
						c1.748,3.098,0.338,7.206-3.188,9.215C297.034,371.389,292.74,370.5,290.992,367.388z"/>
				</g>
			</g>
			<g opacity="0.6" clip-path="url(#SVGID_13_)">
				<g>
					<defs>
						<rect id="SVGID_28_" x="252.416" y="342.609" width="18.645" height="17.74"/>
					</defs>
					<clipPath id="SVGID_29_">
						<use xlink:href="#SVGID_28_"  overflow="visible"/>
					</clipPath>
					<path clip-path="url(#SVGID_29_)" fill="#5E2B81" d="M255.36,355.105c-1.747-3.127-0.34-7.236,3.22-9.215
						c3.495-2.008,7.787-1.104,9.567,1.979c1.748,3.112,0.276,7.236-3.251,9.229C261.37,359.093,257.107,358.188,255.36,355.105"/>
					<path clip-path="url(#SVGID_29_)" fill="none" stroke="#7B3693" stroke-width="3.6319" stroke-miterlimit="10" d="
						M255.36,355.105c-1.747-3.127-0.34-7.236,3.22-9.215c3.495-2.008,7.787-1.104,9.567,1.979c1.748,3.112,0.276,7.236-3.251,9.229
						C261.37,359.093,257.107,358.188,255.36,355.105z"/>
				</g>
			</g>
			<path clip-path="url(#SVGID_13_)" fill="#5E160C" d="M250.758,233.347c-2.022,17.479-4.261,33.962-17.052,46.948
				c-11.408,11.516-22.599,14.628-34.313,17.021c-1.288,0.26-2.546,0.521-3.864,0.766c-0.643,0.139-1.287,0.262-1.932,0.399
				c-12.482,2.438-25.237,5.444-37.504,18.216l4.17,3.971c10.548-10.979,21.405-13.922,32.873-16.254
				c1.137-0.214,2.301-0.444,3.466-0.675c0.828-0.168,1.625-0.307,2.425-0.459c6.377-1.288,12.787-2.714,19.287-5.489
				c6.472-2.745,12.973-6.87,19.504-13.447c14.565-14.797,16.744-33.658,18.859-51.889c0-0.122,0.032-0.274,0.032-0.397
				c-0.399,0.093-0.83,0.169-1.229,0.275C253.887,232.671,252.353,232.993,250.758,233.347"/>
			<path clip-path="url(#SVGID_13_)" fill="#5E160C" d="M226.073,181.442c-2.023,17.496-4.262,33.964-17.083,46.981
				c-11.375,11.516-22.569,14.613-34.284,17.004c-1.287,0.276-2.606,0.521-3.925,0.768c-0.644,0.123-1.255,0.261-1.932,0.384
				c-12.45,2.452-25.238,5.473-37.475,18.215l4.141,4.001c10.55-10.993,21.437-13.938,32.905-16.268
				c1.135-0.214,2.3-0.445,3.497-0.674c0.766-0.153,1.563-0.322,2.391-0.477c6.348-1.257,12.789-2.683,19.289-5.458
				c6.471-2.775,12.971-6.87,19.474-13.464c14.597-14.796,16.774-33.655,18.859-51.886c0.031-0.136,0.031-0.26,0.093-0.398
				c-0.46,0.092-0.859,0.168-1.289,0.246C229.169,180.769,227.607,181.106,226.073,181.442"/>
			<g opacity="0.6" clip-path="url(#SVGID_13_)">
				<g>
					<defs>
						<rect id="SVGID_30_" x="146.156" y="293.038" width="59.523" height="52.868"/>
					</defs>
					<clipPath id="SVGID_31_">
						<use xlink:href="#SVGID_30_"  overflow="visible"/>
					</clipPath>
					<path clip-path="url(#SVGID_31_)" fill="#931A1D" d="M148.455,317.663c0.861-13.355,13.893-23.351,29.073-22.34
						c15.181,0.981,26.803,12.62,25.882,25.974c-0.889,13.339-13.922,23.368-29.07,22.34
						C159.16,342.625,147.566,331.002,148.455,317.663"/>
					<path clip-path="url(#SVGID_31_)" fill="none" stroke="#A73123" stroke-width="3.6319" stroke-miterlimit="10" d="
						M148.455,317.663c0.861-13.355,13.893-23.351,29.073-22.34c15.181,0.981,26.803,12.62,25.882,25.974
						c-0.889,13.339-13.922,23.368-29.07,22.34C159.16,342.625,147.566,331.002,148.455,317.663z"/>
				</g>
			</g>
			<g opacity="0.6" clip-path="url(#SVGID_13_)">
				<g>
					<defs>
						<rect id="SVGID_32_" x="226.655" y="239.525" width="34.134" height="30.589"/>
					</defs>
					<clipPath id="SVGID_33_">
						<use xlink:href="#SVGID_32_"  overflow="visible"/>
					</clipPath>
					<path clip-path="url(#SVGID_33_)" fill="#931A1D" d="M228.892,253.831c0.462-7.222,7.484-12.62,15.672-12.067
						c8.219,0.552,14.475,6.839,13.983,14.029c-0.46,7.223-7.482,12.619-15.699,12.082
						C234.66,267.325,228.402,261.037,228.892,253.831"/>
					<path clip-path="url(#SVGID_33_)" fill="none" stroke="#A73123" stroke-width="3.6319" stroke-miterlimit="10" d="
						M228.892,253.831c0.462-7.222,7.484-12.62,15.672-12.067c8.219,0.552,14.475,6.839,13.983,14.029
						c-0.46,7.223-7.482,12.619-15.699,12.082C234.66,267.325,228.402,261.037,228.892,253.831z"/>
				</g>
			</g>
			<g opacity="0.6" clip-path="url(#SVGID_13_)">
				<g>
					<defs>
						<rect id="SVGID_34_" x="268.576" y="196.301" width="19.994" height="18.155"/>
					</defs>
					<clipPath id="SVGID_35_">
						<use xlink:href="#SVGID_34_"  overflow="visible"/>
					</clipPath>
					<path clip-path="url(#SVGID_35_)" fill="#931A1D" d="M270.784,204.857c0.245-3.788,3.957-6.609,8.218-6.333
						c4.294,0.291,7.608,3.587,7.33,7.375c-0.246,3.786-3.926,6.608-8.217,6.317C273.822,211.941,270.507,208.629,270.784,204.857"
						/>
					<path clip-path="url(#SVGID_35_)" fill="none" stroke="#A73123" stroke-width="3.6319" stroke-miterlimit="10" d="
						M270.784,204.857c0.245-3.788,3.957-6.609,8.218-6.333c4.294,0.291,7.608,3.587,7.33,7.375
						c-0.246,3.786-3.926,6.608-8.217,6.317C273.822,211.941,270.507,208.629,270.784,204.857z"/>
				</g>
			</g>
			<g opacity="0.6" clip-path="url(#SVGID_13_)">
				<g>
					<defs>
						<rect id="SVGID_36_" x="217.762" y="179.68" width="20.024" height="18.139"/>
					</defs>
					<clipPath id="SVGID_37_">
						<use xlink:href="#SVGID_36_"  overflow="visible"/>
					</clipPath>
					<path clip-path="url(#SVGID_37_)" fill="#931A1D" d="M219.97,188.236c0.245-3.773,3.926-6.609,8.25-6.333
						c4.294,0.291,7.572,3.588,7.298,7.36c-0.216,3.788-3.927,6.639-8.22,6.332C223.007,195.32,219.695,192.023,219.97,188.236"/>
					<path clip-path="url(#SVGID_37_)" fill="none" stroke="#A73123" stroke-width="3.6319" stroke-miterlimit="10" d="
						M219.97,188.236c0.245-3.773,3.926-6.609,8.25-6.333c4.294,0.291,7.572,3.588,7.298,7.36c-0.216,3.788-3.927,6.639-8.22,6.332
						C223.007,195.32,219.695,192.023,219.97,188.236z"/>
				</g>
			</g>
			<g opacity="0.6" clip-path="url(#SVGID_13_)">
				<g>
					<defs>
						<rect id="SVGID_38_" x="302.093" y="190.244" width="20.025" height="18.155"/>
					</defs>
					<clipPath id="SVGID_39_">
						<use xlink:href="#SVGID_38_"  overflow="visible"/>
					</clipPath>
					<path clip-path="url(#SVGID_39_)" fill="#931A1D" d="M304.302,198.8c0.245-3.787,3.956-6.608,8.249-6.317
						c4.293,0.276,7.574,3.573,7.36,7.36c-0.275,3.757-3.987,6.609-8.281,6.317C307.338,205.885,304.025,202.588,304.302,198.8"/>
					<path clip-path="url(#SVGID_39_)" fill="none" stroke="#A73123" stroke-width="3.6319" stroke-miterlimit="10" d="
						M304.302,198.8c0.245-3.787,3.956-6.608,8.249-6.317c4.293,0.276,7.574,3.573,7.36,7.36c-0.275,3.757-3.987,6.609-8.281,6.317
						C307.338,205.885,304.025,202.588,304.302,198.8z"/>
				</g>
			</g>
			<g opacity="0.6" clip-path="url(#SVGID_13_)">
				<g>
					<defs>
						<rect id="SVGID_40_" x="321.199" y="160.591" width="19.994" height="18.139"/>
					</defs>
					<clipPath id="SVGID_41_">
						<use xlink:href="#SVGID_40_"  overflow="visible"/>
					</clipPath>
					<path clip-path="url(#SVGID_41_)" fill="#931A1D" d="M323.376,169.146c0.275-3.771,3.986-6.624,8.278-6.333
						c4.294,0.276,7.546,3.589,7.3,7.361c-0.214,3.786-3.925,6.608-8.219,6.331C326.443,176.23,323.13,172.934,323.376,169.146"/>
					<path clip-path="url(#SVGID_41_)" fill="none" stroke="#A73123" stroke-width="3.6319" stroke-miterlimit="10" d="
						M323.376,169.146c0.275-3.771,3.986-6.624,8.278-6.333c4.294,0.276,7.546,3.589,7.3,7.361
						c-0.214,3.786-3.925,6.608-8.219,6.331C326.443,176.23,323.13,172.934,323.376,169.146z"/>
				</g>
			</g>
		</g>
	</g>
	<g>
		<path d="M662.711,413.909h85.163v19.541h-85.163v190.741h92.163v19.541H640.837V322.33c0-6.417,0.146-13.024,0.438-19.833
			c0.292-6.804,1.117-13.316,2.479-19.541c1.357-6.22,3.596-12.104,6.708-17.645c3.107-5.541,7.438-10.399,12.979-14.583
			c5.541-4.179,12.637-7.437,21.291-9.771c8.649-2.333,19.294-3.5,31.936-3.5h30.915V257h-24.79
			c-10.309,0-19.249,0.875-26.832,2.625s-13.854,4.716-18.812,8.896c-4.958,4.183-8.604,9.871-10.938,17.062
			c-2.333,7.196-3.5,16.237-3.5,27.124V413.909z"/>
		<path d="M804.456,585.693c0,6.416,1.066,12.299,3.208,17.645c2.138,5.351,5.055,10.018,8.75,14
			c3.691,3.987,8.116,7.1,13.271,9.333c5.149,2.237,10.837,3.354,17.062,3.354c6.607,0,12.541-1.168,17.791-3.5
			c5.25-2.334,9.771-5.492,13.562-9.479c3.792-3.983,6.708-8.649,8.75-13.999c2.041-5.346,3.062-11.129,3.062-17.354v-99.162
			c0-6.804-1.363-13.221-4.083-19.25c-2.726-6.023-6.371-11.857-10.938-17.498c-4.57-5.638-9.771-11.084-15.604-16.333
			c-5.833-5.25-11.767-10.399-17.791-15.458c-7.195-6.024-14.341-12.148-21.437-18.374c-7.1-6.22-13.416-12.833-18.957-19.833
			c-5.542-6.999-10.017-14.482-13.416-22.457c-3.404-7.971-5.104-16.816-5.104-26.541v-35.582c0-9.333,1.7-17.937,5.104-25.811
			c3.399-7.875,8.021-14.583,13.854-20.125c5.833-5.541,12.687-9.866,20.562-12.979c7.874-3.108,16.187-4.667,24.937-4.667
			c9.333,0,17.937,1.654,25.811,4.958c7.875,3.308,14.729,7.829,20.562,13.562c5.833,5.737,10.354,12.446,13.562,20.125
			c3.208,7.683,4.812,15.995,4.812,24.936v59.789h-21.874v-59.497c0-6.417-1.071-12.295-3.209-17.646
			c-2.142-5.345-5.058-10.012-8.749-13.999c-3.696-3.983-8.166-7.096-13.416-9.333c-5.25-2.233-10.892-3.354-16.916-3.354
			c-6.612,0-12.592,1.167-17.937,3.5c-5.351,2.333-9.871,5.496-13.562,9.479c-3.695,3.987-6.562,8.654-8.604,14
			c-2.041,5.35-3.062,11.133-3.062,17.354v35.29c0,7.195,1.458,13.954,4.375,20.27c2.917,6.32,6.754,12.35,11.521,18.083
			c4.762,5.737,10.157,11.229,16.187,16.479c6.024,5.25,12.149,10.499,18.374,15.749c7,5.833,13.899,11.862,20.708,18.083
			c6.804,6.225,12.878,12.832,18.229,19.832c5.345,7,9.67,14.391,12.979,22.166c3.304,7.778,4.958,16.141,4.958,25.082v99.453
			c0,9.334-1.705,17.892-5.104,25.666c-3.404,7.779-8.021,14.487-13.854,20.124c-5.833,5.642-12.687,10.017-20.562,13.124
			c-7.874,3.108-16.287,4.667-25.228,4.667c-9.333,0-17.938-1.654-25.812-4.958c-7.875-3.304-14.684-7.774-20.416-13.416
			c-5.737-5.637-10.208-12.346-13.416-20.124c-3.208-7.774-4.812-16.137-4.812-25.083v-62.996h21.874V585.693z"/>
		<path d="M1057.028,354.704v-97.996h-25.374c-10.499,0-19.54,0.829-27.123,2.479c-7.583,1.654-13.809,4.571-18.666,8.75
			c-4.862,4.184-8.458,9.871-10.791,17.062c-2.334,7.195-3.5,16.237-3.5,27.124V572.86c0,8.167,0.824,15.704,2.479,22.604
			c1.65,6.903,4.274,12.933,7.875,18.083c3.596,5.153,8.262,9.187,13.999,12.104c5.733,2.916,12.688,4.375,20.854,4.375
			c13.416,0,23.479-3.888,30.187-11.667c6.708-7.774,10.062-18.958,10.062-33.54v-52.789h21.874v53.08
			c0,20.029-5.154,35.778-15.457,47.248c-10.309,11.471-25.666,17.208-46.082,17.208c-12.249,0-22.703-2.042-31.353-6.124
			c-8.654-4.084-15.653-9.575-20.999-16.479c-5.35-6.9-9.237-15.021-11.666-24.354c-2.434-9.333-3.646-19.25-3.646-29.749V322.038
			c0-6.416,0.096-12.979,0.291-19.687c0.191-6.708,1.021-13.22,2.479-19.541c1.458-6.316,3.691-12.25,6.708-17.791
			c3.013-5.542,7.291-10.354,12.833-14.437c5.541-4.083,12.637-7.337,21.29-9.77c8.649-2.429,19.199-3.646,31.645-3.646h53.956
			v117.537H1057.028z"/>
		<path d="M1247.477,643.732h-21.874V433.45h-85.454v210.282h-21.874V237.459h21.874v176.45h85.454v-176.45h21.874V643.732z"/>
		<path d="M1318.932,413.909h85.163v19.541h-85.163v190.741h92.163v19.541h-114.037V322.33c0-6.417,0.146-13.024,0.438-19.833
			c0.292-6.804,1.117-13.316,2.479-19.541c1.357-6.22,3.596-12.104,6.708-17.645c3.107-5.541,7.438-10.399,12.979-14.583
			c5.541-4.179,12.637-7.437,21.291-9.771c8.649-2.333,19.294-3.5,31.936-3.5h30.915V257h-24.79
			c-10.309,0-19.249,0.875-26.832,2.625s-13.854,4.716-18.812,8.896c-4.958,4.183-8.604,9.871-10.938,17.062
			c-2.333,7.196-3.5,16.237-3.5,27.124V413.909z"/>
		<path d="M1573.838,259.625c0,23.332-0.729,44.286-2.188,62.851c-1.458,18.57-3.696,35.291-6.708,50.165
			c-3.017,14.875-6.954,28.049-11.812,39.519c-4.862,11.476-10.695,21.683-17.499,30.624c0.774,3.112,1.991,8.412,3.646,15.895
			c1.65,7.488,3.646,16.237,5.979,26.249c2.333,10.017,4.857,20.903,7.583,32.665c2.721,11.767,5.44,23.529,8.166,35.291
			c2.721,11.766,5.346,23.09,7.875,33.977c2.524,10.893,4.762,20.562,6.708,29.02c1.941,8.459,4.083,17.746,6.416,27.854h-23.332
			l-40.54-182.283c-7.195,6.225-15.07,11.812-23.624,16.77c-8.559,4.959-17.987,9.579-28.29,13.854v151.66h-21.583V322.33
			c0-6.417,0.146-13.024,0.438-19.833c0.292-6.804,1.117-13.316,2.479-19.541c1.357-6.22,3.596-12.104,6.708-17.645
			c3.107-5.541,7.438-10.399,12.979-14.583c5.541-4.179,12.637-7.437,21.291-9.771c8.649-2.333,19.294-3.5,31.936-3.5h53.373
			V259.625z M1466.218,468.156c5.44-2.332,11.374-5.104,17.79-8.312c6.417-3.208,12.783-7.532,19.104-12.979
			c6.316-5.441,12.441-12.396,18.374-20.854c5.93-8.458,11.129-19.054,15.604-31.79c4.471-12.732,8.066-28.095,10.792-46.081
			c2.72-17.982,4.083-39.228,4.083-63.727V257h-25.666c-10.308,0-19.249,0.875-26.832,2.625s-13.854,4.716-18.812,8.896
			c-4.958,4.183-8.604,9.871-10.938,17.062c-2.333,7.196-3.499,16.237-3.499,27.124V468.156z"/>
		<path d="M1628.96,597.068c0,8.945,2.524,16.527,7.583,22.748c5.054,6.226,12.25,9.334,21.583,9.334
			c9.137,0,16.187-3.546,21.145-10.646c4.958-7.095,7.438-15.699,7.438-25.811l21.582-2.917c0,8.558-1.071,16.433-3.208,23.624
			c-2.142,7.195-5.351,13.416-9.625,18.666c-4.279,5.25-9.579,9.333-15.895,12.25c-6.321,2.916-13.662,4.374-22.021,4.374
			c-8.362,0-15.703-1.312-22.02-3.937c-6.32-2.625-11.57-6.316-15.749-11.084c-4.184-4.762-7.342-10.398-9.479-16.916
			c-2.142-6.512-3.208-13.657-3.208-21.436V399.91c0-7.584,1.066-14.629,3.208-21.145c2.138-6.513,5.346-12.15,9.625-16.917
			c4.274-4.762,9.574-8.458,15.896-11.083c6.315-2.625,13.657-3.937,22.02-3.937h50.456v82.829h-21.874V366.37h-28.582
			c-9.333,0-16.479,3.113-21.437,9.333c-4.958,6.225-7.438,13.808-7.438,22.749V597.068z"/>
		<path d="M1838.66,346.829v120.745c0,7.778-1.071,14.924-3.208,21.436c-2.142,6.518-5.351,12.154-9.625,16.916
			c-4.279,4.768-9.579,8.458-15.895,11.083c-6.321,2.625-13.562,3.938-21.729,3.938h-28.874v77.288
			c0,8.945,2.479,16.479,7.438,22.604s12.104,9.188,21.437,9.188c9.137,0,16.187-3.5,21.145-10.5s7.438-15.554,7.438-25.666
			l21.582-3.208c0,8.362-1.07,16.142-3.208,23.333c-2.142,7.195-5.3,13.416-9.479,18.665c-4.184,5.25-9.434,9.384-15.749,12.396
			c-6.321,3.012-13.562,4.521-21.729,4.521c-8.362,0-15.704-1.362-22.02-4.083c-6.321-2.721-11.621-6.462-15.896-11.229
			c-4.279-4.762-7.487-10.399-9.625-16.916c-2.142-6.512-3.208-13.562-3.208-21.145V400.201c0-7.773,1.066-14.92,3.208-21.436
			c2.138-6.513,5.346-12.15,9.625-16.917c4.274-4.762,9.574-8.458,15.896-11.083c6.315-2.625,13.657-3.937,22.02-3.937H1838.66z
			 M1788.204,366.37c-9.333,0-16.479,3.113-21.437,9.333c-4.958,6.225-7.438,13.808-7.438,22.749v102.954h28.874
			c9.137,0,16.187-3.013,21.145-9.041c4.958-6.024,7.438-13.607,7.438-22.749V366.37H1788.204z"/>
		<path d="M1873.659,643.732V187.586h21.874v456.146H1873.659z"/>
		<path d="M1936.364,643.732V187.586h21.874v456.146H1936.364z"/>
	</g>
</g>
</svg>
