<?xml version="1.0" encoding="utf-8"?>
<!-- Generator: Adobe Illustrator 16.0.0, SVG Export Plug-In . SVG Version: 6.00 Build 0)  -->
<!DOCTYPE svg PUBLIC "-//W3C//DTD SVG 1.1//EN" "http://www.w3.org/Graphics/SVG/1.1/DTD/svg11.dtd">
<svg version="1.1" id="Layer_1" xmlns="http://www.w3.org/2000/svg" xmlns:xlink="http://www.w3.org/1999/xlink" x="0px" y="0px"
	 width="269.5px" height="62px" viewBox="0 0 269.5 62" enable-background="new 0 0 269.5 62" xml:space="preserve">
<g>
	<path d="M68.938,8.324c-0.119,0.067-0.232,0.072-0.282,0.072c-0.139,0-0.25-0.04-0.373-0.04c-0.139,0-0.224,0.054-0.317,0.109
		c-4.09,2.412-6.512,6.871-6.512,11.871c0,5.439,2.82,10.583,7.604,13.363l-1.148,1.842c-5.544-2.91-8.891-8.729-8.891-15.087
		c0-6.407,3.443-11.892,8.86-14.274L68.938,8.324z"/>
	<path d="M85.351,12.372c-0.076-0.023-0.177-0.092-0.184-0.287c-0.005-0.128,0.013-0.202-0.08-0.336
		c-0.845-1.232-2.407-2.161-4.439-2.161c-2.497,0-3.939,1.525-3.939,3.197c0,0.892,0.403,2.186,2.229,3.253
		c1.996,1.167,5.069,1.787,6.966,3.573c1.365,1.286,1.695,2.809,1.695,3.951c0,2.744-1.961,6.303-7.27,6.303
		c-2.691,0-5.134-0.944-6.85-2.812l1.45-2.507c0.167,0.085,0.159,0.277,0.159,0.335c-0.002,0.145-0.011,0.233,0.099,0.372
		c0.975,1.235,2.819,2.405,5.213,2.405c3.166,0,4.763-2.059,4.763-3.956c0-0.976-0.399-2.115-1.83-3.011
		c-1.648-1.033-4.797-1.788-6.817-3.279c-1.818-1.343-2.318-2.982-2.318-4.254c0-2.983,2.706-5.588,6.645-5.588
		c2.377,0,4.571,0.964,6.049,2.719L85.351,12.372z"/>
	<path d="M98.501,8.777c0.123,0.355-0.129,0.571-0.198,0.945c-0.165,0.887-0.406,3.767-0.406,3.767h5.226v2.084h-5.256
		c-0.202,2.079-0.304,4.167-0.304,6.257c0,2.317,0.084,2.933,0.103,3.073c0.256,1.921,1.497,2.582,2.691,2.582
		c0.985,0,2.225-0.451,3.582-1.461l0.785,1.994c-1.353,0.99-3.208,1.786-5.112,1.786c-1.633,0-2.883-0.635-3.641-1.703
		c-0.931-1.312-0.944-2.919-0.944-4.353c0-2.716,0.109-5.438,0.333-8.176h-3.746l0.03-2.054h3.806l0.302-4.29L98.501,8.777z"/>
	<path d="M115.545,13.156c2.482,0,4.512,0.908,5.562,2.657c0.737,1.23,0.785,2.468,0.785,3.779V29.5h-2.387v-1.752
		c-1.745,1.43-3.778,2.145-5.741,2.145c-3.342,0-5.381-2.18-5.381-4.525c0-1.773,1.145-3.642,3.667-4.569
		c2.034-0.748,4.556-0.723,6.911-0.723h0.514v-0.574c0-0.847,0.013-1.876-0.52-2.751c-0.452-0.741-1.391-1.54-3.291-1.54
		c-1.477,0-3.277,0.412-4.588,1.783l-1.238-1.601C111.332,13.85,113.389,13.156,115.545,13.156z M118.991,22.008
		c-1.661,0-3.803-0.104-5.255,0.242c-2.005,0.479-2.82,1.785-2.82,2.947c0,1.429,1.238,2.768,3.359,2.768
		c2.094,0,3.623-1.27,4.204-1.887c1.079-1.146,1.086-2.184,1.086-3.013v-1.057H118.991z"/>
	<path d="M130.269,13.52l-0.091,3.081c1.047-2.286,3.419-3.468,5.755-3.468c1.796,0,3.269,0.715,4.274,1.746l-1.178,2.417
		c-0.27-0.257-0.384-0.534-0.594-0.802c-0.449-0.574-1.295-1.198-2.641-1.198c-1.131,0-3.039,0.398-4.492,2.695
		c-1.088,1.719-1.125,2.78-1.125,3.745v7.794h-2.537V13.52H130.269z"/>
	<path d="M151,8.777c0.123,0.355-0.127,0.571-0.197,0.945c-0.164,0.887-0.406,3.767-0.406,3.767h5.227v2.084h-5.256
		c-0.203,2.079-0.305,4.167-0.305,6.257c0,2.317,0.084,2.933,0.104,3.073c0.256,1.921,1.496,2.582,2.689,2.582
		c0.986,0,2.227-0.451,3.582-1.461l0.787,1.994c-1.354,0.99-3.209,1.786-5.113,1.786c-1.633,0-2.883-0.635-3.641-1.703
		c-0.932-1.312-0.943-2.919-0.943-4.353c0-2.716,0.109-5.438,0.332-8.176h-3.746l0.029-2.054h3.807l0.303-4.29L151,8.777z"/>
	<path d="M179.113,6.24h2.9c0.012,0.034,0.018,0.069,0.018,0.105c0,0.183-0.143,0.29-0.223,0.375
		c-0.119,0.125-0.127,0.217-0.127,0.335v9.274c1.174-1.782,3.145-3.202,5.314-3.202c1.822,0,3.461,1.023,4.258,2.823
		c0.568,1.285,0.576,2.605,0.576,3.854V29.5h-2.477v-9.636c0-1.13-0.006-2.502-0.873-3.536c-0.574-0.687-1.365-1.013-2.168-1.013
		c-1.689,0-3.227,1.414-3.836,2.226c-0.666,0.886-0.795,1.668-0.795,2.746V29.5h-2.568V6.24z"/>
	<path d="M209.553,18.803c0.156,0.928,0.207,1.956,0.111,3.054h-11.35c0.189,4.789,3.287,5.968,5.426,5.968
		c1.592,0,3.098-0.632,4.141-1.8l1.391,1.359c-1.369,1.646-3.443,2.482-5.727,2.482c-4.342,0-7.678-2.852-7.678-8.179
		c0-5.838,3.533-8.569,7.354-8.569C205.842,13.119,208.826,14.51,209.553,18.803z M207.186,19.924
		c0.301-2.593-1.549-4.869-4.141-4.869c-1.717,0-4.15,1.097-4.648,4.869H207.186z"/>
	<path d="M217.768,13.52l-0.09,3.081c1.047-2.286,3.418-3.468,5.756-3.468c1.795,0,3.268,0.715,4.273,1.746l-1.178,2.417
		c-0.27-0.257-0.385-0.534-0.594-0.802c-0.449-0.574-1.295-1.198-2.641-1.198c-1.131,0-3.039,0.398-4.492,2.695
		c-1.088,1.719-1.125,2.78-1.125,3.745v7.794h-2.537V13.52H217.768z"/>
	<path d="M244.553,18.803c0.156,0.928,0.207,1.956,0.111,3.054h-11.35c0.189,4.789,3.287,5.968,5.426,5.968
		c1.592,0,3.098-0.632,4.141-1.8l1.391,1.359c-1.369,1.646-3.443,2.482-5.727,2.482c-4.342,0-7.678-2.852-7.678-8.179
		c0-5.838,3.533-8.569,7.354-8.569C240.842,13.119,243.826,14.51,244.553,18.803z M242.186,19.924
		c0.301-2.593-1.549-4.869-4.141-4.869c-1.717,0-4.15,1.097-4.648,4.869H242.186z"/>
	<path d="M250.051,6.209c5.686,2.618,9.363,8.288,9.363,14.521c0,6.289-3.74,12.103-9.545,14.871l-0.666-2.114
		c4.73-2.503,7.734-7.389,7.734-12.656c0-5.195-2.926-9.987-7.553-12.447L250.051,6.209z"/>
</g>
<g>
	<g>
		<path fill="none" stroke="#231F20" stroke-width="3" stroke-miterlimit="10" d="M53,21.524c0,0-34.51,0.513-37.386,25.258"/>
		<g>
			<path fill="#231F20" d="M15.898,55.837c-1.644-4.236-4.418-9.48-7.323-12.714l7.171,2.475l7.094-2.686
				C20.032,46.229,17.414,51.555,15.898,55.837z"/>
		</g>
	</g>
</g>
</svg>
